<?xml version="1.0" encoding="utf-8"?>
<!-- Generator: Adobe Illustrator 19.2.1, SVG Export Plug-In . SVG Version: 6.00 Build 0)  -->
<svg version="1.1" id="layer" xmlns="http://www.w3.org/2000/svg" xmlns:xlink="http://www.w3.org/1999/xlink" x="0px" y="0px"
	 viewBox="0 0 652 652" style="enable-background:new 0 0 652 652;" xml:space="preserve">
<style type="text/css">
	.st0{fill:#A71412;}
	.st1{fill:#FFFFFF;}
	.st2{fill-rule:evenodd;clip-rule:evenodd;fill:#FFFFFF;}
</style>
<rect x="70.1" y="71.3" class="st0" width="500" height="500"/>
<path class="st1" d="M350,406.8c10.3-8.6,18.8-11.7,32.3-12c14.5-0.3,24,3.2,34.9,12.6l-8.1,14.4c-6.7-9.1-14.6-13-25.9-12.8
	c-16.5,0.3-30.6,13.1-30.6,29.1L350,406.8z"/>
<path class="st2" d="M239.4,443.3c0-26.8,21.7-48.5,48.5-48.5c26.8,0,48.6,21.7,48.6,48.5c0,26.8-21.7,48.6-48.6,48.6
	C261.1,491.9,239.4,470.1,239.4,443.3 M254.5,443.3c0-18.5,15-33.4,33.4-33.4c18.5,0,33.4,15,33.4,33.4c0,18.5-15,33.4-33.4,33.4
	C269.4,476.7,254.5,461.8,254.5,443.3"/>
<path class="st2" d="M396.1,443.4c0-26.8,21.7-48.5,48.5-48.5c26.8,0,48.6,21.7,48.6,48.5c0,26.8-21.7,48.6-48.6,48.6
	C417.8,492,396.1,470.2,396.1,443.4 M411.2,443.4c0-18.5,15-33.4,33.4-33.4c18.5,0,33.4,15,33.4,33.4c0,18.5-15,33.4-33.4,33.4
	C426.1,476.9,411.2,461.9,411.2,443.4"/>
<path class="st1" d="M336.6,394.9H353v97.4h-16.5V394.9z M479,492.3h16.1V373.4H479V492.3z M157.9,447.6
	c0.7-22.8,14.1-36.8,33.4-36.7c17.4,0.1,31.2,12.3,33.3,29.6v51.8h14.9v-57.5c-4.1-23.6-22.8-39.6-46.8-39.8
	c-14.7-0.2-25,3.9-34.7,14.1l0.1-14.1h-16.5v97.4H158v-46.8L157.9,447.6z M513.7,383.2c1.5,0,2.8-0.1,3-2c-0.2-1.3-1.4-1.6-2.5-1.5
	h-2.5v3.5H513.7z M511.7,389.7h-2v-11.5h4.5c2.8,0,4.2,1,4,3c0.2,2.3-1.1,3.2-3,3.5l3.5,5h-2l-3-5h-2V389.7z M505.7,383.7
	c0,5,3.5,8.5,8,8.5c4.6,0,8.1-3.5,8-8.5c0.1-4.5-3.4-8.1-8-8C509.2,375.6,505.7,379.2,505.7,383.7 M513.7,393.7
	c-5.4,0.1-10-4.1-10-10c0-5.5,4.6-9.7,10-9.5c5.5-0.2,10.1,4,10,9.5C523.8,389.6,519.2,393.8,513.7,393.7"/>
</svg>
