<?xml version="1.0" standalone="no"?>
<!DOCTYPE svg PUBLIC "-//W3C//DTD SVG 20010904//EN"
 "http://www.w3.org/TR/2001/REC-SVG-20010904/DTD/svg10.dtd">
<svg version="1.0" xmlns="http://www.w3.org/2000/svg"
 width="950.000000pt" height="1024.000000pt" viewBox="0 0 950.000000 1024.000000"
 preserveAspectRatio="xMidYMid meet">

<g transform="translate(0.000000,1024.000000) scale(0.100000,-0.100000)"
fill="#000000" stroke="none">
<path d="M3900 10156 c-58 -45 -240 -187 -405 -314 -165 -128 -313 -243 -330
-256 -16 -13 -53 -41 -81 -62 -57 -44 -258 -200 -669 -519 -156 -121 -390
-303 -522 -405 -351 -272 -706 -547 -893 -692 -91 -71 -217 -169 -280 -218
-63 -49 -172 -133 -241 -187 -70 -54 -201 -156 -293 -226 -98 -76 -166 -135
-166 -145 0 -9 7 -49 15 -87 9 -39 20 -92 25 -120 5 -27 19 -93 30 -145 11
-52 32 -149 45 -215 14 -66 34 -163 45 -215 17 -81 42 -198 81 -385 4 -22 24
-116 44 -210 20 -93 51 -244 70 -335 35 -171 104 -502 150 -720 62 -298 77
-370 95 -455 10 -49 31 -146 45 -215 14 -69 35 -165 45 -215 11 -49 76 -362
145 -695 69 -333 130 -623 135 -645 5 -22 19 -87 30 -145 12 -58 24 -113 26
-123 4 -12 97 -63 272 -149 532 -260 550 -268 591 -268 22 0 42 3 44 8 7 10
-103 570 -268 1372 -20 96 -40 195 -44 220 -9 50 -122 610 -145 717 -17 79
-45 218 -57 283 -4 25 -24 124 -44 220 -20 96 -41 198 -45 225 -5 28 -61 307
-125 620 -64 314 -120 590 -124 615 -13 66 -40 205 -57 285 -18 83 -62 300
-74 370 -5 28 -12 59 -15 71 -5 17 12 35 107 110 101 79 367 291 1268 1009
146 116 330 263 410 326 80 64 325 259 545 434 220 175 488 389 595 474 107
85 348 277 535 426 187 148 371 295 409 324 65 52 67 55 45 64 -34 13 -269 97
-299 107 -14 5 -83 29 -155 55 -242 86 -300 103 -355 109 l-55 5 -105 -83z"/>
<path d="M5093 9628 c-131 -105 -270 -216 -310 -247 -39 -31 -72 -58 -72 -61
-1 -3 70 -31 157 -63 152 -57 358 -134 1232 -460 228 -85 604 -226 835 -312
231 -86 515 -192 630 -235 116 -44 220 -83 233 -88 22 -7 17 -14 -75 -92 -54
-47 -100 -87 -103 -90 -7 -7 -219 -192 -316 -276 -81 -70 -722 -627 -999 -869
-138 -120 -321 -279 -769 -669 -202 -176 -261 -227 -382 -332 -91 -80 -185
-161 -238 -206 l-29 -24 119 -12 c66 -7 182 -17 259 -23 77 -7 143 -15 147
-18 3 -3 2 -44 -3 -91 -11 -110 -39 -420 -39 -443 0 -14 9 -17 48 -17 41 0 55
6 93 37 24 21 46 40 49 43 3 3 59 53 125 110 66 58 125 109 131 115 6 5 96 84
200 175 103 91 231 203 284 250 53 47 181 160 286 251 398 350 712 625 751
659 22 19 107 94 189 167 526 464 769 674 771 666 1 -4 13 -114 27 -243 14
-129 28 -255 31 -280 3 -25 23 -207 45 -405 22 -198 44 -400 50 -450 6 -49 17
-153 25 -230 8 -77 19 -176 25 -220 5 -44 23 -208 40 -365 17 -157 35 -321 40
-365 5 -44 16 -143 25 -220 8 -77 19 -180 25 -230 34 -300 52 -463 62 -559
l10 -109 -83 -81 c-46 -45 -134 -128 -194 -185 -61 -58 -157 -150 -215 -205
-58 -56 -153 -146 -211 -201 -57 -55 -197 -188 -309 -295 -113 -108 -308 -294
-435 -415 -126 -120 -320 -305 -430 -410 -110 -105 -303 -289 -430 -410 -312
-297 -400 -381 -535 -510 -63 -61 -143 -138 -178 -170 l-63 -60 52 -355 c28
-195 55 -386 60 -424 5 -38 10 -70 11 -71 2 -2 26 -1 54 2 59 6 36 -13 404
342 228 220 404 389 1055 1016 137 132 308 297 380 367 71 69 141 136 155 148
14 12 84 78 155 148 72 69 182 176 245 237 63 60 180 173 260 250 80 77 260
250 400 385 140 135 309 297 375 360 66 64 156 150 199 192 l80 76 -12 128
c-7 71 -23 237 -37 369 -14 132 -29 283 -35 335 -5 52 -14 140 -20 195 -6 55
-17 168 -25 250 -9 83 -22 209 -29 280 -8 72 -20 180 -26 240 -6 61 -15 151
-20 200 -5 50 -14 137 -20 195 -6 58 -15 146 -20 195 -9 84 -26 248 -50 475
-26 252 -32 312 -41 395 -36 346 -50 482 -59 570 -5 55 -14 145 -20 200 -6 55
-15 143 -20 195 -5 52 -21 203 -35 335 -14 132 -30 294 -36 361 l-12 120 -66
23 c-149 52 -520 183 -581 205 -36 14 -150 55 -255 91 -104 37 -291 102 -415
146 -124 44 -236 84 -250 89 -14 4 -56 20 -95 33 -89 32 -194 69 -415 147
-236 83 -333 117 -410 145 -77 28 -174 62 -410 145 -203 72 -278 98 -491 174
-118 43 -169 56 -212 56 l-55 0 -239 -192z"/>
<path d="M1203 6588 c8 -31 20 -93 127 -638 81 -415 149 -758 255 -1295 19
-93 75 -379 125 -635 51 -256 116 -586 145 -735 30 -148 95 -479 145 -735 141
-717 170 -864 175 -881 3 -8 78 -51 168 -94 89 -43 252 -123 362 -177 168 -82
207 -98 247 -98 27 0 48 4 48 8 0 9 -51 291 -115 637 -14 77 -32 178 -40 225
-15 86 -18 101 -55 289 -12 57 -19 105 -17 108 2 2 33 -40 68 -94 35 -54 136
-208 224 -343 89 -135 249 -378 355 -540 106 -162 263 -401 348 -530 85 -128
157 -240 160 -248 2 -8 91 -56 196 -107 105 -51 292 -142 416 -203 783 -383
760 -372 811 -372 27 0 49 2 49 5 0 3 -109 164 -243 358 -306 443 -640 927
-742 1077 -43 63 -93 135 -110 160 -17 25 -180 261 -362 525 -182 264 -414
601 -517 750 -144 210 -183 272 -173 281 10 10 250 211 787 663 137 116 196
166 530 447 124 104 259 218 300 253 41 34 78 74 82 87 5 21 28 186 68 499 4
33 6 61 5 63 -1 2 -94 7 -206 12 -112 5 -256 12 -319 16 l-115 6 -181 -154
c-169 -143 -1237 -1044 -1369 -1155 -33 -28 -109 -92 -169 -142 -60 -51 -112
-88 -116 -84 -4 4 -14 51 -24 103 -28 154 -57 312 -66 360 -5 25 -13 72 -19
105 -6 33 -22 121 -36 195 -14 74 -30 162 -36 195 -6 33 -14 80 -19 105 -17
93 -40 218 -60 325 -11 61 -33 184 -50 275 -17 91 -38 203 -46 250 -8 47 -24
130 -34 185 -10 55 -26 141 -35 190 -9 50 -20 109 -26 132 -5 23 -9 53 -9 67
0 14 -8 30 -18 35 -9 5 -166 64 -347 131 -181 67 -351 131 -378 141 -26 10
-71 19 -98 19 -48 0 -51 -1 -46 -22z"/>
<path d="M7871 5858 c-25 -6 -61 -22 -80 -36 -45 -32 -131 -119 -131 -131 0
-5 -7 -14 -15 -21 -13 -11 -67 -111 -72 -135 -8 -41 -13 -56 -17 -64 -10 -15
-19 -95 -18 -156 2 -68 29 -202 43 -210 5 -4 9 -15 9 -25 0 -25 54 -86 94
-107 54 -28 129 -20 238 26 53 23 103 41 112 41 9 0 23 -11 32 -25 22 -34 11
-107 -25 -160 -30 -44 -29 -46 9 -190 27 -103 40 -135 54 -135 11 0 86 75 86
85 0 2 11 20 24 39 28 42 82 176 92 231 4 22 9 47 11 55 7 31 3 204 -6 209 -5
3 -14 30 -20 59 -38 179 -157 224 -366 138 -103 -42 -116 -43 -139 -17 -38 42
-13 139 47 185 38 29 63 28 88 -2 9 -12 22 -22 27 -22 12 0 72 73 72 88 0 5 7
15 15 22 31 26 86 121 80 139 -7 24 -73 89 -107 107 -37 19 -84 23 -137 12z"/>
<path d="M7329 5399 c-19 -17 -50 -43 -69 -59 -90 -74 -100 -86 -105 -131 -6
-46 -8 -68 -25 -239 -6 -58 -12 -114 -14 -125 -3 -18 -7 -50 -21 -180 -7 -77
-18 -135 -24 -135 -4 0 -25 21 -47 47 -21 26 -57 68 -80 93 -22 25 -47 53 -55
62 -8 10 -43 49 -79 88 l-65 70 -37 -32 c-20 -18 -66 -58 -101 -88 -36 -30
-68 -61 -71 -69 -4 -7 -2 -29 3 -50 6 -20 21 -94 35 -166 62 -324 89 -452 97
-473 5 -13 9 -36 9 -51 0 -16 12 -80 26 -142 14 -63 34 -163 45 -224 22 -128
37 -185 48 -185 9 0 82 56 91 69 3 4 30 29 60 56 30 26 58 53 62 60 4 6 -6 69
-22 138 -17 70 -35 153 -40 185 -6 31 -15 80 -20 107 -5 28 -16 82 -25 120 -9
39 -19 86 -22 105 l-5 35 38 -44 c22 -25 59 -68 84 -96 25 -28 67 -77 94 -108
27 -31 54 -57 61 -57 23 0 95 77 96 101 0 13 2 42 4 64 17 154 35 330 40 385
12 132 17 124 70 -105 21 -92 24 -97 45 -82 18 13 108 89 168 144 32 28 34 34
25 60 -6 15 -28 100 -48 188 -21 88 -48 203 -61 255 -14 52 -43 169 -65 259
-22 91 -42 168 -45 173 -9 14 -19 9 -55 -23z"/>
<path d="M6226 4384 c-33 -8 -67 -21 -76 -29 -9 -8 -21 -15 -26 -15 -5 0 -27
-16 -49 -35 -22 -19 -45 -39 -50 -43 -6 -5 -35 -30 -65 -57 -207 -182 -189
-151 -166 -280 8 -44 20 -114 26 -155 6 -41 16 -100 21 -130 19 -102 23 -106
63 -67 36 35 137 121 152 130 17 10 18 64 2 142 -10 52 -10 59 7 71 10 8 30
24 44 36 79 69 144 82 186 35 100 -107 108 -392 17 -561 -31 -58 -128 -166
-148 -166 -8 0 -14 10 -14 22 0 12 -5 48 -12 80 -12 59 -26 71 -52 46 -7 -7
-41 -38 -77 -68 -88 -76 -111 -101 -104 -118 3 -7 7 -32 10 -55 3 -23 10 -67
15 -97 5 -30 14 -91 20 -135 13 -90 29 -181 36 -207 4 -14 10 -15 32 -7 15 6
29 14 32 18 3 4 30 29 60 56 100 87 204 180 220 196 63 66 89 101 160 219 29
47 73 167 95 261 29 121 35 246 21 419 -8 94 -21 156 -52 244 -76 215 -170
287 -328 250z"/>
</g>
</svg>
